Atma-Light.ufo
<glyph name="exclam" format="1">
  <advance width="199"/>
  <unicode hex="0021"/>
  <outline>
    <contour>
      <point x="60" y="712"/>
      <point x="60" y="686"/>
      <point x="60" y="669" type="curve" smooth="yes"/>
      <point x="60" y="534"/>
      <point x="62" y="406"/>
      <point x="73" y="202" type="curve"/>
      <point x="80" y="200"/>
      <point x="87" y="199"/>
      <point x="97" y="199" type="curve" smooth="yes"/>
      <point x="105" y="199"/>
      <point x="110" y="200"/>
      <point x="114" y="201" type="curve"/>
      <point x="109" y="376"/>
      <point x="109" y="557"/>
      <point x="124" y="735" type="curve"/>
      <point x="116" y="736"/>
      <point x="110" y="737"/>
      <point x="99" y="737" type="curve" smooth="yes"/>
      <point x="85" y="737"/>
      <point x="75" y="734"/>
      <point x="61" y="728" type="curve"/>
    </contour>
    <contour>
      <point x="71" y="44"/>
      <point x="71" y="23"/>
      <point x="72" y="1" type="curve"/>
      <point x="81" y="0"/>
      <point x="89" y="-1"/>
      <point x="98" y="-1" type="curve" smooth="yes"/>
      <point x="108" y="-1"/>
      <point x="118" y="0"/>
      <point x="129" y="2" type="curve"/>
      <point x="128" y="26"/>
      <point x="128" y="41"/>
      <point x="126" y="64" type="curve"/>
      <point x="108" y="66"/>
      <point x="93" y="66"/>
      <point x="72" y="64" type="curve"/>
    </contour>
  </outline>
</glyph>
<glyph name="numbersign" format="1">
  <advance width="600"/>
  <unicode hex="0023"/>
  <outline>
    <contour>
      <point x="94" y="-35" type="curve"/>
      <point x="202" y="214"/>
      <point x="252" y="396"/>
      <point x="270" y="603" type="curve"/>
      <point x="252" y="612"/>
      <point x="240" y="617"/>
      <point x="226" y="620" type="curve"/>
      <point x="207" y="411"/>
      <point x="150" y="194"/>
      <point x="49" y="-19" type="curve"/>
      <point x="61" y="-26"/>
      <point x="73" y="-30"/>
    </contour>
    <contour>
      <point x="10" y="214" type="curve"/>
      <point x="232" y="165"/>
      <point x="395" y="162"/>
      <point x="570" y="181" type="curve"/>
      <point x="575" y="198"/>
      <point x="577" y="210"/>
      <point x="578" y="223" type="curve"/>
      <point x="401" y="204"/>
      <point x="207" y="209"/>
      <point x="16" y="257" type="curve"/>
      <point x="13" y="245"/>
      <point x="10" y="233"/>
    </contour>
    <contour>
      <point x="22" y="410" type="curve"/>
      <point x="244" y="362"/>
      <point x="407" y="359"/>
      <point x="582" y="378" type="curve"/>
      <point x="586" y="395"/>
      <point x="589" y="407"/>
      <point x="590" y="420" type="curve"/>
      <point x="413" y="401"/>
      <point x="219" y="405"/>
      <point x="28" y="453" type="curve"/>
      <point x="24" y="442"/>
      <point x="22" y="430"/>
    </contour>
    <contour>
      <point x="323" y="-39" type="curve"/>
      <point x="431" y="210"/>
      <point x="477" y="392"/>
      <point x="495" y="599" type="curve"/>
      <point x="477" y="608"/>
      <point x="466" y="612"/>
      <point x="451" y="615" type="curve"/>
      <point x="432" y="406"/>
      <point x="379" y="189"/>
      <point x="278" y="-24" type="curve"/>
      <point x="290" y="-31"/>
      <point x="301" y="-34"/>
    </contour>
  </outline>
</glyph>
<glyph name="dollar" format="1">
  <advance width="329"/>
  <unicode hex="0024"/>
  <outline>
    <contour>
      <point x="259" y="179" type="curve" smooth="yes"/>
      <point x="259" y="120"/>
      <point x="228" y="89"/>
      <point x="178" y="89" type="curve" smooth="yes"/>
      <point x="114" y="89"/>
      <point x="80" y="144"/>
      <point x="86" y="241" type="curve"/>
      <point x="68" y="242"/>
      <point x="49" y="239"/>
      <point x="31" y="234" type="curve"/>
      <point x="31" y="116"/>
      <point x="83" y="45"/>
      <point x="173" y="45" type="curve" smooth="yes"/>
      <point x="257" y="45"/>
      <point x="314" y="100"/>
      <point x="314" y="185" type="curve" smooth="yes"/>
      <point x="314" y="272"/>
      <point x="253" y="324"/>
      <point x="195" y="375" type="curve" smooth="yes"/>
      <point x="139" y="423"/>
      <point x="85" y="471"/>
      <point x="85" y="548" type="curve" smooth="yes"/>
      <point x="85" y="607"/>
      <point x="117" y="638"/>
      <point x="165" y="638" type="curve"/>
      <point x="217" y="638"/>
      <point x="243" y="601"/>
      <point x="254" y="521" type="curve"/>
      <point x="272" y="522"/>
      <point x="288" y="526"/>
      <point x="302" y="533" type="curve"/>
      <point x="288" y="631"/>
      <point x="251" y="682"/>
      <point x="167" y="682" type="curve" smooth="yes"/>
      <point x="77" y="682"/>
      <point x="30" y="625"/>
      <point x="30" y="542" type="curve" smooth="yes"/>
      <point x="30" y="451"/>
      <point x="91" y="397"/>
      <point x="150" y="346" type="curve" smooth="yes"/>
      <point x="206" y="297"/>
      <point x="259" y="251"/>
    </contour>
    <contour>
      <point x="190" y="654" type="line"/>
      <point x="185" y="696"/>
      <point x="184" y="737"/>
      <point x="186" y="773" type="curve"/>
      <point x="163" y="775"/>
      <point x="151" y="773"/>
      <point x="138" y="767" type="curve"/>
      <point x="136" y="736"/>
      <point x="143" y="697"/>
      <point x="150" y="654" type="curve"/>
    </contour>
    <contour>
      <point x="141" y="-63" type="curve"/>
      <point x="164" y="-66"/>
      <point x="174" y="-65"/>
      <point x="188" y="-60" type="curve"/>
      <point x="192" y="-26"/>
      <point x="191" y="13"/>
      <point x="188" y="53" type="curve"/>
      <point x="148" y="56" type="line"/>
      <point x="150" y="9"/>
      <point x="147" y="-22"/>
    </contour>
  </outline>
</glyph>
<glyph name="asterisk" format="1">
  <advance width="427"/>
  <unicode hex="002A"/>
  <outline>
    <contour>
      <point x="379" y="403" type="curve" smooth="yes"/>
      <point x="385" y="412"/>
      <point x="391" y="427"/>
      <point x="395" y="437" type="curve"/>
      <point x="332" y="466"/>
      <point x="284" y="492"/>
      <point x="214" y="534" type="curve"/>
      <point x="207" y="524"/>
      <point x="199" y="512"/>
      <point x="197" y="501" type="curve"/>
      <point x="280" y="442"/>
      <point x="321" y="414"/>
      <point x="369" y="389" type="curve"/>
      <point x="373" y="395"/>
      <point x="375" y="396"/>
    </contour>
    <contour>
      <point x="390" y="600" type="curve" smooth="yes"/>
      <point x="386" y="610"/>
      <point x="375" y="623"/>
      <point x="369" y="632" type="curve"/>
      <point x="312" y="591"/>
      <point x="265" y="563"/>
      <point x="195" y="523" type="curve"/>
      <point x="200" y="512"/>
      <point x="206" y="500"/>
      <point x="214" y="492" type="curve"/>
      <point x="307" y="535"/>
      <point x="351" y="556"/>
      <point x="397" y="585" type="curve"/>
      <point x="394" y="591"/>
      <point x="394" y="593"/>
    </contour>
    <contour>
      <point x="242" y="707" type="curve"/>
      <point x="234" y="708"/>
      <point x="232" y="709"/>
      <point x="224" y="709" type="curve" smooth="yes"/>
      <point x="214" y="709"/>
      <point x="198" y="708"/>
      <point x="188" y="706" type="curve"/>
      <point x="193" y="635"/>
      <point x="195" y="580"/>
      <point x="194" y="495" type="curve"/>
      <point x="206" y="494"/>
      <point x="221" y="494"/>
      <point x="231" y="497" type="curve"/>
      <point x="241" y="602"/>
      <point x="244" y="652"/>
    </contour>
    <contour>
      <point x="239" y="317" type="curve"/>
      <point x="234" y="386"/>
      <point x="232" y="440"/>
      <point x="233" y="523" type="curve"/>
      <point x="221" y="524"/>
      <point x="206" y="524"/>
      <point x="196" y="521" type="curve"/>
      <point x="186" y="419"/>
      <point x="183" y="369"/>
      <point x="185" y="316" type="curve"/>
      <point x="193" y="315"/>
      <point x="195" y="314"/>
      <point x="203" y="314" type="curve" smooth="yes"/>
      <point x="213" y="314"/>
      <point x="229" y="315"/>
    </contour>
    <contour>
      <point x="58" y="634" type="curve"/>
      <point x="54" y="628"/>
      <point x="52" y="627"/>
      <point x="48" y="620" type="curve" smooth="yes"/>
      <point x="42" y="611"/>
      <point x="36" y="596"/>
      <point x="32" y="586" type="curve"/>
      <point x="96" y="555"/>
      <point x="145" y="530"/>
      <point x="218" y="486" type="curve"/>
      <point x="225" y="497"/>
      <point x="233" y="509"/>
      <point x="235" y="520" type="curve"/>
      <point x="149" y="581"/>
      <point x="108" y="608"/>
    </contour>
    <contour>
      <point x="30" y="438" type="curve"/>
      <point x="33" y="432"/>
      <point x="33" y="430"/>
      <point x="37" y="423" type="curve" smooth="yes"/>
      <point x="41" y="413"/>
      <point x="52" y="400"/>
      <point x="58" y="391" type="curve"/>
      <point x="117" y="431"/>
      <point x="163" y="461"/>
      <point x="238" y="503" type="curve"/>
      <point x="232" y="515"/>
      <point x="226" y="527"/>
      <point x="217" y="535" type="curve"/>
      <point x="121" y="490"/>
      <point x="77" y="468"/>
    </contour>
  </outline>
</glyph>
<glyph name="eight" format="1">
  <advance width="423"/>
  <unicode hex="0038"/>
  <outline>
    <contour>
      <point x="393" y="225" type="curve" smooth="yes"/>
      <point x="393" y="318"/>
      <point x="314" y="391"/>
      <point x="232" y="391" type="curve" smooth="yes"/>
      <point x="107" y="391"/>
      <point x="35" y="281"/>
      <point x="35" y="170" type="curve" smooth="yes"/>
      <point x="35" y="70"/>
      <point x="106" y="-6"/>
      <point x="199" y="-6" type="curve" smooth="yes"/>
      <point x="311" y="-6"/>
      <point x="393" y="90"/>
    </contour>
    <contour>
      <point x="338" y="216" type="curve" smooth="yes"/>
      <point x="338" y="113"/>
      <point x="281" y="38"/>
      <point x="205" y="38" type="curve" smooth="yes"/>
      <point x="142" y="38"/>
      <point x="90" y="83"/>
      <point x="90" y="181" type="curve" smooth="yes"/>
      <point x="90" y="286"/>
      <point x="157" y="347"/>
      <point x="219" y="347" type="curve" smooth="yes"/>
      <point x="296" y="347"/>
      <point x="338" y="286"/>
    </contour>
    <contour>
      <point x="323" y="536" type="curve" smooth="yes"/>
      <point x="323" y="450"/>
      <point x="279" y="390"/>
      <point x="212" y="390" type="curve" smooth="yes"/>
      <point x="135" y="390"/>
      <point x="100" y="455"/>
      <point x="100" y="526" type="curve" smooth="yes"/>
      <point x="100" y="609"/>
      <point x="144" y="679"/>
      <point x="213" y="679" type="curve" smooth="yes"/>
      <point x="276" y="679"/>
      <point x="323" y="635"/>
    </contour>
    <contour>
      <point x="378" y="560" type="curve" smooth="yes"/>
      <point x="378" y="655"/>
      <point x="307" y="723"/>
      <point x="221" y="723" type="curve" smooth="yes"/>
      <point x="114" y="723"/>
      <point x="45" y="646"/>
      <point x="45" y="520" type="curve" smooth="yes"/>
      <point x="45" y="420"/>
      <point x="116" y="346"/>
      <point x="189" y="346" type="curve" smooth="yes"/>
      <point x="304" y="346"/>
      <point x="378" y="420"/>
    </contour>
  </outline>
</glyph>
<glyph name="C" format="1">
  <advance width="535"/>
  <unicode hex="0043"/>
  <outline>
    <contour>
      <point x="472" y="210" type="curve"/>
      <point x="453" y="218"/>
      <point x="442" y="220"/>
      <point x="422" y="220" type="curve"/>
      <point x="425" y="95"/>
      <point x="371" y="12"/>
      <point x="273" y="12" type="curve" smooth="yes"/>
      <point x="167" y="12"/>
      <point x="108" y="112"/>
      <point x="108" y="296" type="curve" smooth="yes"/>
      <point x="108" y="532"/>
      <point x="209" y="646"/>
      <point x="302" y="646" type="curve" smooth="yes"/>
      <point x="390" y="646"/>
      <point x="421" y="590"/>
      <point x="411" y="450" type="curve"/>
      <point x="430" y="449"/>
      <point x="456" y="453"/>
      <point x="470" y="464" type="curve"/>
      <point x="476" y="616"/>
      <point x="429" y="693"/>
      <point x="312" y="693" type="curve" smooth="yes"/>
      <point x="155" y="693"/>
      <point x="48" y="531"/>
      <point x="48" y="285" type="curve" smooth="yes"/>
      <point x="48" y="78"/>
      <point x="130" y="-35"/>
      <point x="270" y="-35" type="curve" smooth="yes"/>
      <point x="395" y="-35"/>
      <point x="464" y="50"/>
    </contour>
  </outline>
</glyph>
<glyph name="G" format="1">
  <advance width="556"/>
  <unicode hex="0047"/>
  <outline>
    <contour>
      <point x="466" y="225" type="curve"/>
      <point x="422" y="246" type="line"/>
      <point x="393" y="103"/>
      <point x="332" y="27"/>
      <point x="247" y="27" type="curve" smooth="yes"/>
      <point x="169" y="27"/>
      <point x="108" y="121"/>
      <point x="108" y="323" type="curve" smooth="yes"/>
      <point x="108" y="532"/>
      <point x="184" y="677"/>
      <point x="283" y="677" type="curve" smooth="yes"/>
      <point x="359" y="677"/>
      <point x="402" y="611"/>
      <point x="403" y="478" type="curve"/>
      <point x="426" y="480"/>
      <point x="445" y="483"/>
      <point x="462" y="488" type="curve"/>
      <point x="464" y="621"/>
      <point x="410" y="724"/>
      <point x="298" y="724" type="curve" smooth="yes"/>
      <point x="144" y="724"/>
      <point x="48" y="551"/>
      <point x="48" y="306" type="curve" smooth="yes"/>
      <point x="48" y="95"/>
      <point x="128" y="-21"/>
      <point x="240" y="-21" type="curve" smooth="yes"/>
      <point x="356" y="-21"/>
      <point x="420" y="66"/>
    </contour>
    <contour>
      <point x="520" y="-23" type="curve"/>
      <point x="481" y="105"/>
      <point x="465" y="220"/>
      <point x="467" y="348" type="curve"/>
      <point x="445" y="348"/>
      <point x="420" y="345"/>
      <point x="400" y="341" type="curve"/>
      <point x="408" y="194"/>
      <point x="433" y="79"/>
      <point x="475" y="-29" type="curve"/>
      <point x="491" y="-28"/>
      <point x="509" y="-26"/>
    </contour>
  </outline>
</glyph>
<glyph name="J" format="1">
  <advance width="445"/>
  <unicode hex="004A"/>
  <outline>
    <contour>
      <point x="197" y="-88" type="curve" smooth="yes"/>
      <point x="265" y="-88"/>
      <point x="309" y="-38"/>
      <point x="334" y="43" type="curve" smooth="yes"/>
      <point x="356" y="117"/>
      <point x="362" y="214"/>
      <point x="362" y="322" type="curve" smooth="yes"/>
      <point x="362" y="453"/>
      <point x="350" y="596"/>
      <point x="336" y="725" type="curve"/>
      <point x="325" y="725"/>
      <point x="314" y="724"/>
      <point x="304" y="722" type="curve" smooth="yes"/>
      <point x="291" y="720"/>
      <point x="279" y="716"/>
      <point x="270" y="711" type="curve"/>
      <point x="290" y="533"/>
      <point x="302" y="392"/>
      <point x="302" y="232" type="curve" smooth="yes"/>
      <point x="302" y="39"/>
      <point x="264" y="-41"/>
      <point x="200" y="-41" type="curve" smooth="yes"/>
      <point x="144" y="-41"/>
      <point x="113" y="6"/>
      <point x="92" y="183" type="curve"/>
      <point x="71" y="178"/>
      <point x="54" y="173"/>
      <point x="38" y="164" type="curve"/>
      <point x="55" y="3"/>
      <point x="108" y="-88"/>
    </contour>
  </outline>
</glyph>
<glyph name="K" format="1">
  <advance width="547"/>
  <unicode hex="004B"/>
  <outline>
    <contour>
      <point x="150" y="-64" type="curve"/>
      <point x="133" y="73"/>
      <point x="126" y="166"/>
      <point x="126" y="343" type="curve" smooth="yes"/>
      <point x="126" y="457"/>
      <point x="128" y="566"/>
      <point x="149" y="700" type="curve"/>
      <point x="141" y="702"/>
      <point x="130" y="704"/>
      <point x="117" y="704" type="curve" smooth="yes"/>
      <point x="105" y="704"/>
      <point x="91" y="702"/>
      <point x="79" y="700" type="curve"/>
      <point x="72" y="597"/>
      <point x="68" y="511"/>
      <point x="68" y="440" type="curve" smooth="yes"/>
      <point x="68" y="264"/>
      <point x="74" y="142"/>
      <point x="100" y="-69" type="curve"/>
      <point x="115" y="-69"/>
      <point x="135" y="-66"/>
    </contour>
    <contour>
      <point x="114" y="218" type="line"/>
      <point x="296" y="360"/>
      <point x="374" y="457"/>
      <point x="474" y="644" type="curve"/>
      <point x="461" y="659"/>
      <point x="446" y="673"/>
      <point x="430" y="681" type="curve"/>
      <point x="337" y="487"/>
      <point x="282" y="407"/>
      <point x="97" y="247" type="curve"/>
    </contour>
    <contour>
      <point x="491" y="-78" type="curve"/>
      <point x="510" y="-67"/>
      <point x="522" y="-54"/>
      <point x="533" y="-40" type="curve"/>
      <point x="402" y="160"/>
      <point x="350" y="221"/>
      <point x="221" y="338" type="curve"/>
      <point x="187" y="305" type="line"/>
      <point x="338" y="161"/>
      <point x="403" y="71"/>
    </contour>
  </outline>
</glyph>
<glyph name="L" format="1">
  <advance width="471"/>
  <unicode hex="004C"/>
  <outline>
    <contour>
      <point x="458" y="-72" type="curve"/>
      <point x="458" y="-59"/>
      <point x="456" y="-36"/>
      <point x="454" y="-22" type="curve"/>
      <point x="354" y="-22"/>
      <point x="249" y="-31"/>
      <point x="163" y="-43" type="curve"/>
      <point x="139" y="128"/>
      <point x="132" y="258"/>
      <point x="130" y="392" type="curve" smooth="yes"/>
      <point x="129" y="488"/>
      <point x="129" y="576"/>
      <point x="137" y="672" type="curve"/>
      <point x="132" y="673"/>
      <point x="123" y="674"/>
      <point x="115" y="674" type="curve" smooth="yes"/>
      <point x="98" y="674"/>
      <point x="88" y="672"/>
      <point x="73" y="666" type="curve"/>
      <point x="66" y="426"/>
      <point x="81" y="172"/>
      <point x="117" y="-97" type="curve"/>
      <point x="216" y="-83"/>
      <point x="308" y="-73"/>
    </contour>
  </outline>
</glyph>
<glyph name="N" format="1">
  <advance width="616"/>
  <unicode hex="004E"/>
  <outline>
    <contour>
      <point x="153" y="-34" type="curve"/>
      <point x="143" y="105"/>
      <point x="133" y="240"/>
      <point x="131" y="360" type="curve" smooth="yes"/>
      <point x="128" y="491"/>
      <point x="125" y="561"/>
      <point x="130" y="685" type="curve"/>
      <point x="127" y="685"/>
      <point x="70" y="683"/>
      <point x="69" y="682" type="curve"/>
      <point x="69" y="467"/>
      <point x="77" y="296"/>
      <point x="106" y="-40" type="curve"/>
      <point x="124" y="-39"/>
      <point x="139" y="-37"/>
    </contour>
    <contour>
      <point x="516" y="23" type="curve"/>
      <point x="534" y="230"/>
      <point x="537" y="366"/>
      <point x="537" y="549" type="curve" smooth="yes"/>
      <point x="537" y="622"/>
      <point x="534" y="689"/>
      <point x="530" y="757" type="curve"/>
      <point x="504" y="755"/>
      <point x="486" y="751"/>
      <point x="467" y="745" type="curve"/>
      <point x="481" y="653"/>
      <point x="484" y="496"/>
      <point x="484" y="353" type="curve" smooth="yes"/>
      <point x="484" y="227"/>
      <point x="484" y="108"/>
      <point x="471" y="18" type="curve"/>
      <point x="487" y="19"/>
      <point x="501" y="20"/>
    </contour>
    <contour>
      <point x="503" y="65" type="line"/>
      <point x="377" y="376"/>
      <point x="249" y="560"/>
      <point x="136" y="704" type="curve"/>
      <point x="104" y="698"/>
      <point x="94" y="693"/>
      <point x="69" y="682" type="curve"/>
      <point x="208" y="528"/>
      <point x="351" y="296"/>
      <point x="471" y="18" type="curve"/>
    </contour>
  </outline>
</glyph>
<glyph name="O" format="1">
  <advance width="591"/>
  <unicode hex="004F"/>
  <outline>
    <contour>
      <point x="541" y="388" type="curve" smooth="yes"/>
      <point x="541" y="612"/>
      <point x="465" y="733"/>
      <point x="319" y="733" type="curve" smooth="yes"/>
      <point x="158" y="733"/>
      <point x="48" y="565"/>
      <point x="48" y="342" type="curve" smooth="yes"/>
      <point x="48" y="133"/>
      <point x="139" y="-20"/>
      <point x="274" y="-20" type="curve" smooth="yes"/>
      <point x="472" y="-20"/>
      <point x="541" y="219"/>
    </contour>
    <contour>
      <point x="481" y="377" type="curve" smooth="yes"/>
      <point x="481" y="208"/>
      <point x="420" y="27"/>
      <point x="276" y="27" type="curve" smooth="yes"/>
      <point x="156" y="27"/>
      <point x="109" y="204"/>
      <point x="109" y="351" type="curve" smooth="yes"/>
      <point x="109" y="551"/>
      <point x="197" y="685"/>
      <point x="312" y="685" type="curve" smooth="yes"/>
      <point x="421" y="685"/>
      <point x="481" y="599"/>
    </contour>
  </outline>
</glyph>
<glyph name="T" format="1">
  <advance width="592"/>
  <unicode hex="0054"/>
  <outline>
    <contour>
      <point x="561" y="740" type="curve"/>
      <point x="561" y="747"/>
      <point x="562" y="755"/>
      <point x="561" y="764" type="curve" smooth="yes"/>
      <point x="560" y="772"/>
      <point x="558" y="782"/>
      <point x="554" y="791" type="curve"/>
      <point x="360" y="788"/>
      <point x="231" y="776"/>
      <point x="24" y="744" type="curve"/>
      <point x="23" y="732"/>
      <point x="24" y="712"/>
      <point x="28" y="693" type="curve"/>
      <point x="246" y="726"/>
      <point x="353" y="737"/>
    </contour>
    <contour>
      <point x="355" y="33" type="curve"/>
      <point x="357" y="95"/>
      <point x="358" y="153"/>
      <point x="358" y="209" type="curve" smooth="yes"/>
      <point x="358" y="400"/>
      <point x="347" y="559"/>
      <point x="325" y="763" type="curve"/>
      <point x="322" y="763"/>
      <point x="263" y="758"/>
      <point x="260" y="757" type="curve"/>
      <point x="292" y="539"/>
      <point x="308" y="263"/>
      <point x="300" y="25" type="curve"/>
      <point x="319" y="26"/>
      <point x="344" y="29"/>
    </contour>
  </outline>
</glyph>
<glyph name="Z" format="1">
  <advance width="585"/>
  <unicode hex="005A"/>
  <outline>
    <contour>
      <point x="500" y="-34" type="curve"/>
      <point x="510" y="-12"/>
      <point x="516" y="8"/>
      <point x="517" y="28" type="curve"/>
      <point x="386" y="19"/>
      <point x="238" y="24"/>
      <point x="83" y="42" type="curve"/>
      <point x="311" y="286"/>
      <point x="446" y="461"/>
      <point x="548" y="623" type="curve"/>
      <point x="548" y="625"/>
      <point x="555" y="662"/>
      <point x="555" y="664" type="curve"/>
      <point x="403" y="686"/>
      <point x="276" y="704"/>
      <point x="117" y="737" type="curve"/>
      <point x="106" y="721"/>
      <point x="99" y="702"/>
      <point x="98" y="681" type="curve"/>
      <point x="218" y="659"/>
      <point x="344" y="642"/>
      <point x="523" y="625" type="curve"/>
      <point x="497" y="649" type="line"/>
      <point x="424" y="514"/>
      <point x="287" y="324"/>
      <point x="29" y="53" type="curve"/>
      <point x="26" y="39"/>
      <point x="25" y="23"/>
      <point x="26" y="5" type="curve"/>
      <point x="157" y="-17"/>
      <point x="327" y="-33"/>
    </contour>
  </outline>
</glyph>
<glyph name="bracketright" format="1">
  <advance width="312.862576285"/>
  <unicode hex="005D"/>
  <outline>
    <contour>
      <point x="10" y="793" type="curve"/>
      <point x="10" y="780"/>
      <point x="11" y="762"/>
      <point x="13" y="748" type="curve"/>
      <point x="66" y="757"/>
      <point x="121" y="762"/>
      <point x="166" y="762" type="curve"/>
      <point x="195" y="497"/>
      <point x="200" y="208"/>
      <point x="174" y="-86" type="curve"/>
      <point x="229" y="-87" type="line"/>
      <point x="247" y="206"/>
      <point x="252" y="597"/>
      <point x="216" y="804" type="curve"/>
      <point x="139" y="806"/>
      <point x="69" y="802"/>
    </contour>
    <contour>
      <point x="27" y="-114" type="curve"/>
      <point x="86" y="-110"/>
      <point x="154" y="-103"/>
      <point x="229" y="-87" type="curve"/>
      <point x="179" y="-51" type="line"/>
      <point x="143" y="-60"/>
      <point x="84" y="-66"/>
      <point x="27" y="-69" type="curve"/>
      <point x="26" y="-85"/>
      <point x="26" y="-101"/>
    </contour>
  </outline>
</glyph>
<glyph name="f" format="1">
  <advance width="365"/>
  <unicode hex="0066"/>
  <outline>
    <contour>
      <point x="174" y="-15"/>
      <point x="154" y="-21"/>
      <point x="135" y="-21" type="curve"/>
      <point x="122" y="38"/>
      <point x="96" y="236"/>
      <point x="96" y="402" type="curve" smooth="yes"/>
      <point x="96" y="637"/>
      <point x="142" y="727"/>
      <point x="233" y="727" type="curve" smooth="yes"/>
      <point x="303" y="727"/>
      <point x="339" y="671"/>
      <point x="339" y="604" type="curve" smooth="yes"/>
      <point x="339" y="583"/>
      <point x="333" y="555"/>
      <point x="326" y="542" type="curve"/>
      <point x="309" y="542"/>
      <point x="293" y="545"/>
      <point x="278" y="551" type="curve"/>
      <point x="283" y="567"/>
      <point x="288" y="587"/>
      <point x="288" y="611" type="curve" smooth="yes"/>
      <point x="288" y="652"/>
      <point x="268" y="682"/>
      <point x="233" y="682" type="curve" smooth="yes"/>
      <point x="178" y="682"/>
      <point x="147" y="599"/>
      <point x="147" y="448" type="curve" smooth="yes"/>
      <point x="147" y="274"/>
      <point x="161" y="117"/>
      <point x="191" y="-9" type="curve"/>
    </contour>
    <contour>
      <point x="97" y="433"/>
      <point x="160" y="428"/>
      <point x="229" y="428" type="curve" smooth="yes"/>
      <point x="257" y="428"/>
      <point x="280" y="431"/>
      <point x="297" y="434" type="curve"/>
      <point x="297" y="419"/>
      <point x="294" y="398"/>
      <point x="292" y="386" type="curve"/>
      <point x="281" y="384"/>
      <point x="263" y="382"/>
      <point x="224" y="382" type="curve" smooth="yes"/>
      <point x="141" y="382"/>
      <point x="63" y="395"/>
      <point x="34" y="407" type="curve"/>
      <point x="34" y="416"/>
      <point x="35" y="437"/>
      <point x="40" y="442" type="curve"/>
    </contour>
  </outline>
</glyph>
<glyph name="g" format="1">
  <advance width="430"/>
  <unicode hex="0067"/>
  <outline>
    <contour>
      <point x="280" y="457" type="curve"/>
      <point x="335" y="486" type="line"/>
      <point x="304" y="503"/>
      <point x="266" y="513"/>
      <point x="230" y="513" type="curve" smooth="yes"/>
      <point x="124" y="513"/>
      <point x="45" y="421"/>
      <point x="45" y="257" type="curve" smooth="yes"/>
      <point x="45" y="101"/>
      <point x="106" y="4"/>
      <point x="202" y="4" type="curve" smooth="yes"/>
      <point x="263" y="4"/>
      <point x="309" y="50"/>
      <point x="341" y="198" type="curve"/>
      <point x="316" y="238" type="line"/>
      <point x="296" y="130"/>
      <point x="265" y="51"/>
      <point x="203" y="51" type="curve" smooth="yes"/>
      <point x="149" y="51"/>
      <point x="105" y="117"/>
      <point x="105" y="253" type="curve" smooth="yes"/>
      <point x="105" y="403"/>
      <point x="150" y="467"/>
      <point x="231" y="467" type="curve" smooth="yes"/>
      <point x="248" y="467"/>
      <point x="267" y="464"/>
    </contour>
    <contour>
      <point x="313" y="486"/>
      <point x="287" y="484"/>
      <point x="272" y="469" type="curve"/>
      <point x="298" y="387"/>
      <point x="313" y="302"/>
      <point x="313" y="150" type="curve" smooth="yes"/>
      <point x="313" y="-145"/>
      <point x="241" y="-202"/>
      <point x="188" y="-202" type="curve" smooth="yes"/>
      <point x="133" y="-202"/>
      <point x="102" y="-163"/>
      <point x="87" y="-62" type="curve"/>
      <point x="67" y="-68"/>
      <point x="49" y="-77"/>
      <point x="33" y="-87" type="curve"/>
      <point x="45" y="-156"/>
      <point x="86" y="-247"/>
      <point x="185" y="-247" type="curve" smooth="yes"/>
      <point x="256" y="-247"/>
      <point x="369" y="-179"/>
      <point x="369" y="169" type="curve" smooth="yes"/>
      <point x="369" y="276"/>
      <point x="354" y="403"/>
      <point x="335" y="486" type="curve"/>
    </contour>
  </outline>
</glyph>
<glyph name="j" format="1">
  <advance width="214"/>
  <unicode hex="006A"/>
  <outline>
    <contour>
      <point x="78" y="627" type="curve"/>
      <point x="84" y="667"/>
      <point x="96" y="708"/>
      <point x="107" y="737" type="curve"/>
      <point x="94" y="743"/>
      <point x="85" y="744"/>
      <point x="72" y="745" type="curve" smooth="yes"/>
      <point x="59" y="745"/>
      <point x="50" y="743"/>
      <point x="39" y="738" type="curve"/>
      <point x="31" y="714"/>
      <point x="29" y="687"/>
      <point x="31" y="659" type="curve" smooth="yes"/>
      <point x="32" y="647"/>
      <point x="34" y="634"/>
      <point x="36" y="622" type="curve"/>
      <point x="52" y="623"/>
      <point x="68" y="625"/>
    </contour>
    <contour>
      <point x="-67" y="-194"/>
      <point x="-109" y="-164"/>
      <point x="-140" y="-108" type="curve"/>
      <point x="-132" y="-92"/>
      <point x="-121" y="-76"/>
      <point x="-108" y="-65" type="curve"/>
      <point x="-82" y="-122"/>
      <point x="-54" y="-144"/>
      <point x="-19" y="-144" type="curve" smooth="yes"/>
      <point x="47" y="-144"/>
      <point x="88" y="-46"/>
      <point x="88" y="167" type="curve" smooth="yes"/>
      <point x="88" y="294"/>
      <point x="62" y="402"/>
      <point x="34" y="531" type="curve"/>
      <point x="55" y="539"/>
      <point x="77" y="540"/>
      <point x="100" y="537" type="curve"/>
      <point x="129" y="390"/>
      <point x="144" y="286"/>
      <point x="144" y="189" type="curve" smooth="yes"/>
      <point x="144" y="-79"/>
      <point x="79" y="-194"/>
      <point x="-14" y="-194" type="curve" smooth="yes"/>
    </contour>
  </outline>
</glyph>
<glyph name="m" format="1">
  <advance width="678"/>
  <unicode hex="006D"/>
  <outline>
    <contour>
      <point x="338" y="54"/>
      <point x="366" y="194"/>
      <point x="366" y="318" type="curve" smooth="yes"/>
      <point x="366" y="457"/>
      <point x="327" y="503"/>
      <point x="256" y="503" type="curve" smooth="yes"/>
      <point x="201" y="503"/>
      <point x="137" y="468"/>
      <point x="85" y="355" type="curve"/>
      <point x="103" y="316" type="line"/>
      <point x="137" y="409"/>
      <point x="196" y="452"/>
      <point x="244" y="452" type="curve" smooth="yes"/>
      <point x="293" y="452"/>
      <point x="311" y="413"/>
      <point x="311" y="322" type="curve" smooth="yes"/>
      <point x="311" y="223"/>
      <point x="297" y="131"/>
      <point x="277" y="24" type="curve"/>
      <point x="288" y="18"/>
      <point x="311" y="13"/>
      <point x="327" y="12" type="curve"/>
    </contour>
    <contour>
      <point x="52" y="353"/>
      <point x="59" y="94"/>
      <point x="66" y="-35" type="curve"/>
      <point x="82" y="-35"/>
      <point x="101" y="-32"/>
      <point x="114" y="-27" type="curve"/>
      <point x="108" y="19"/>
      <point x="106" y="139"/>
      <point x="106" y="180" type="curve" smooth="yes"/>
      <point x="106" y="277"/>
      <point x="111" y="435"/>
      <point x="121" y="524" type="curve"/>
      <point x="108" y="527"/>
      <point x="98" y="527"/>
      <point x="88" y="527" type="curve" smooth="yes"/>
      <point x="75" y="527"/>
      <point x="62" y="524"/>
      <point x="52" y="519" type="curve"/>
    </contour>
    <contour>
      <point x="575" y="36"/>
      <point x="617" y="214"/>
      <point x="617" y="373" type="curve" smooth="yes"/>
      <point x="617" y="512"/>
      <point x="578" y="558"/>
      <point x="507" y="558" type="curve" smooth="yes"/>
      <point x="451" y="558"/>
      <point x="390" y="517"/>
      <point x="333" y="395" type="curve"/>
      <point x="354" y="351" type="line"/>
      <point x="392" y="456"/>
      <point x="447" y="507"/>
      <point x="495" y="507" type="curve" smooth="yes"/>
      <point x="544" y="507"/>
      <point x="562" y="468"/>
      <point x="562" y="377" type="curve" smooth="yes"/>
      <point x="562" y="249"/>
      <point x="545" y="132"/>
      <point x="510" y="-7" type="curve"/>
      <point x="521" y="-13"/>
      <point x="544" y="-18"/>
      <point x="560" y="-19" type="curve"/>
    </contour>
  </outline>
</glyph>
<glyph name="q" format="1">
  <advance width="471"/>
  <unicode hex="0071"/>
  <outline>
    <contour>
      <point x="340" y="448" type="curve"/>
      <point x="360" y="490" type="line"/>
      <point x="344" y="499"/>
      <point x="300" y="509"/>
      <point x="272" y="509" type="curve" smooth="yes"/>
      <point x="129" y="509"/>
      <point x="41" y="385"/>
      <point x="41" y="196" type="curve" smooth="yes"/>
      <point x="41" y="61"/>
      <point x="97" y="-50"/>
      <point x="191" y="-50" type="curve" smooth="yes"/>
      <point x="255" y="-50"/>
      <point x="308" y="3"/>
      <point x="345" y="178" type="curve"/>
      <point x="316" y="194" type="line"/>
      <point x="290" y="37"/>
      <point x="252" y="-5"/>
      <point x="193" y="-5" type="curve" smooth="yes"/>
      <point x="144" y="-5"/>
      <point x="96" y="62"/>
      <point x="96" y="197" type="curve" smooth="yes"/>
      <point x="96" y="389"/>
      <point x="182" y="464"/>
      <point x="263" y="464" type="curve" smooth="yes"/>
      <point x="306" y="464"/>
      <point x="324" y="457"/>
    </contour>
    <contour>
      <point x="371" y="561"/>
      <point x="362" y="558"/>
      <point x="352" y="553" type="curve"/>
      <point x="326" y="443"/>
      <point x="307" y="235"/>
      <point x="307" y="95" type="curve" smooth="yes"/>
      <point x="307" y="-56"/>
      <point x="314" y="-211"/>
      <point x="317" y="-238" type="curve"/>
      <point x="324" y="-240"/>
      <point x="327" y="-241"/>
      <point x="334" y="-241" type="curve" smooth="yes"/>
      <point x="342" y="-241"/>
      <point x="357" y="-239"/>
      <point x="364" y="-236" type="curve"/>
      <point x="350" y="78"/>
      <point x="365" y="364"/>
      <point x="420" y="557" type="curve"/>
      <point x="410" y="560"/>
      <point x="398" y="561"/>
      <point x="389" y="561" type="curve" smooth="yes"/>
    </contour>
  </outline>
</glyph>
<glyph name="w" format="1">
  <advance width="633"/>
  <unicode hex="0077"/>
  <outline>
    <contour>
      <point x="313" y="461" type="curve"/>
      <point x="353" y="355"/>
      <point x="394" y="199"/>
      <point x="417" y="13" type="curve"/>
      <point x="399" y="18" type="line"/>
      <point x="486" y="210"/>
      <point x="531" y="372"/>
      <point x="548" y="492" type="curve"/>
      <point x="567" y="489"/>
      <point x="587" y="479"/>
      <point x="602" y="470" type="curve"/>
      <point x="555" y="273"/>
      <point x="520" y="170"/>
      <point x="422" y="-28" type="curve"/>
      <point x="412" y="-31"/>
      <point x="392" y="-35"/>
      <point x="379" y="-35" type="curve"/>
      <point x="351" y="153"/>
      <point x="322" y="275"/>
      <point x="275" y="406" type="curve"/>
      <point x="312" y="408" type="line"/>
      <point x="277" y="261"/>
      <point x="251" y="171"/>
      <point x="184" y="19" type="curve"/>
      <point x="174" y="16"/>
      <point x="155" y="11"/>
      <point x="137" y="10" type="curve"/>
      <point x="67" y="195"/>
      <point x="33" y="348"/>
      <point x="16" y="536" type="curve"/>
      <point x="31" y="543"/>
      <point x="47" y="546"/>
      <point x="66" y="547" type="curve"/>
      <point x="88" y="311"/>
      <point x="124" y="175"/>
      <point x="175" y="39" type="curve"/>
      <point x="143" y="35" type="line"/>
      <point x="210" y="175"/>
      <point x="245" y="299"/>
      <point x="269" y="454" type="curve"/>
      <point x="281" y="458"/>
      <point x="295" y="461"/>
    </contour>
  </outline>
</glyph>
<glyph name="x" format="1">
  <advance width="471"/>
  <unicode hex="0078"/>
  <outline>
    <contour>
      <point x="75" y="518" type="curve"/>
      <point x="195" y="370"/>
      <point x="308" y="185"/>
      <point x="397" y="-23" type="curve"/>
      <point x="410" y="-19"/>
      <point x="427" y="-8"/>
      <point x="440" y="2" type="curve"/>
      <point x="347" y="215"/>
      <point x="260" y="365"/>
      <point x="137" y="552" type="curve"/>
      <point x="115" y="544"/>
      <point x="95" y="532"/>
    </contour>
    <contour>
      <point x="253" y="318" type="curve"/>
      <point x="238" y="304" type="line"/>
      <point x="164" y="206"/>
      <point x="84" y="116"/>
      <point x="1" y="37" type="curve"/>
      <point x="10" y="25"/>
      <point x="21" y="14"/>
      <point x="35" y="5" type="curve"/>
      <point x="128" y="98"/>
      <point x="198" y="176"/>
      <point x="265" y="263" type="curve"/>
      <point x="281" y="277" type="line"/>
      <point x="331" y="343"/>
      <point x="381" y="413"/>
      <point x="440" y="500" type="curve"/>
      <point x="425" y="517"/>
      <point x="419" y="529"/>
      <point x="399" y="543" type="curve"/>
      <point x="355" y="466"/>
      <point x="306" y="390"/>
    </contour>
  </outline>
</glyph>
<glyph name="z" format="1">
  <advance width="422"/>
  <unicode hex="007A"/>
  <outline>
    <contour>
      <point x="352" y="-14" type="curve"/>
      <point x="359" y="3"/>
      <point x="366" y="18"/>
      <point x="367" y="37" type="curve"/>
      <point x="240" y="32"/>
      <point x="157" y="40"/>
      <point x="65" y="54" type="curve"/>
      <point x="180" y="209"/>
      <point x="262" y="308"/>
      <point x="385" y="438" type="curve"/>
      <point x="389" y="450"/>
      <point x="391" y="466"/>
      <point x="391" y="478" type="curve"/>
      <point x="272" y="512"/>
      <point x="202" y="526"/>
      <point x="79" y="537" type="curve"/>
      <point x="73" y="519"/>
      <point x="71" y="512"/>
      <point x="68" y="489" type="curve"/>
      <point x="173" y="479"/>
      <point x="233" y="471"/>
      <point x="335" y="450" type="curve"/>
      <point x="216" y="325"/>
      <point x="125" y="210"/>
      <point x="18" y="63" type="curve"/>
      <point x="16" y="50"/>
      <point x="16" y="38"/>
      <point x="17" y="21" type="curve"/>
      <point x="110" y="0"/>
      <point x="197" y="-13"/>
    </contour>
  </outline>
</glyph>
<glyph name="braceright" format="1">
  <advance width="310.287253677"/>
  <unicode hex="007D"/>
  <outline>
    <contour>
      <point x="193" y="317" type="curve"/>
      <point x="198" y="326" type="line"/>
      <point x="128" y="317"/>
      <point x="90" y="269"/>
      <point x="89" y="205" type="curve" smooth="yes"/>
      <point x="87" y="111"/>
      <point x="174" y="57"/>
      <point x="172" y="-37" type="curve" smooth="yes"/>
      <point x="171" y="-86"/>
      <point x="145" y="-117"/>
      <point x="106" y="-116" type="curve" smooth="yes"/>
      <point x="85" y="-116"/>
      <point x="74" y="-112"/>
      <point x="58" y="-104" type="curve"/>
      <point x="49" y="-116"/>
      <point x="44" y="-131"/>
      <point x="45" y="-147" type="curve"/>
      <point x="61" y="-156"/>
      <point x="78" y="-160"/>
      <point x="109" y="-161" type="curve" smooth="yes"/>
      <point x="178" y="-163"/>
      <point x="225" y="-111"/>
      <point x="227" y="-39" type="curve" smooth="yes"/>
      <point x="228" y="6"/>
      <point x="216" y="41"/>
      <point x="187" y="91" type="curve" smooth="yes"/>
      <point x="157" y="144"/>
      <point x="138" y="171"/>
      <point x="139" y="209" type="curve" smooth="yes"/>
      <point x="140" y="257"/>
      <point x="167" y="287"/>
      <point x="209" y="286" type="curve" smooth="yes"/>
      <point x="223" y="286"/>
      <point x="232" y="284"/>
      <point x="246" y="280" type="curve"/>
      <point x="251" y="298"/>
      <point x="252" y="333"/>
      <point x="247" y="361" type="curve"/>
      <point x="233" y="358"/>
      <point x="220" y="358"/>
      <point x="206" y="358" type="curve" smooth="yes"/>
      <point x="167" y="359"/>
      <point x="138" y="391"/>
      <point x="139" y="436" type="curve" smooth="yes"/>
      <point x="139" y="474"/>
      <point x="160" y="510"/>
      <point x="192" y="561" type="curve" smooth="yes"/>
      <point x="223" y="611"/>
      <point x="236" y="644"/>
      <point x="237" y="689" type="curve" smooth="yes"/>
      <point x="239" y="761"/>
      <point x="194" y="815"/>
      <point x="125" y="817" type="curve" smooth="yes"/>
      <point x="94" y="818"/>
      <point x="78" y="814"/>
      <point x="61" y="805" type="curve"/>
      <point x="61" y="790"/>
      <point x="64" y="775"/>
      <point x="72" y="762" type="curve"/>
      <point x="88" y="770"/>
      <point x="99" y="772"/>
      <point x="120" y="772" type="curve" smooth="yes"/>
      <point x="159" y="771"/>
      <point x="183" y="740"/>
      <point x="182" y="691" type="curve" smooth="yes"/>
      <point x="180" y="597"/>
      <point x="91" y="538"/>
      <point x="89" y="443" type="curve" smooth="yes"/>
      <point x="87" y="375"/>
      <point x="122" y="327"/>
    </contour>
  </outline>
</glyph>
<glyph name="brokenbar" format="1">
  <advance width="268.0"/>
  <unicode hex="00A6"/>
  <outline>
    <contour>
      <point x="156" y="376" type="curve"/>
      <point x="156" y="501"/>
      <point x="158.0" y="624.0"/>
      <point x="163.0" y="725.0" type="curve"/>
      <point x="137.0" y="727.0"/>
      <point x="114.0" y="721.0"/>
      <point x="100.0" y="714.0" type="curve"/>
      <point x="100.0" y="603.0"/>
      <point x="100" y="488"/>
      <point x="102" y="371" type="curve"/>
      <point x="121" y="370"/>
      <point x="139" y="371"/>
    </contour>
    <contour>
      <point x="120.0" y="-171.0" type="curve"/>
      <point x="133.0" y="-171.0"/>
      <point x="158.0" y="-168.0"/>
      <point x="168.0" y="-165.0" type="curve"/>
      <point x="164.0" y="-69.0"/>
      <point x="159" y="71"/>
      <point x="157" y="221" type="curve"/>
      <point x="139" y="224"/>
      <point x="121" y="225"/>
      <point x="105" y="222" type="curve"/>
      <point x="108" y="86"/>
      <point x="113.0" y="-47.0"/>
    </contour>
  </outline>
</glyph>
<glyph name="questiondown" format="1">
  <advance width="343"/>
  <unicode hex="00BF"/>
  <outline>
    <contour>
      <point x="196" y="197" type="line"/>
      <point x="85" y="167"/>
      <point x="30" y="79"/>
      <point x="30" y="-23" type="curve" smooth="yes"/>
      <point x="30" y="-136"/>
      <point x="87" y="-211"/>
      <point x="176" y="-211" type="curve" smooth="yes"/>
      <point x="284" y="-211"/>
      <point x="330" y="-127"/>
      <point x="338" y="7" type="curve"/>
      <point x="323" y="11"/>
      <point x="305" y="14"/>
      <point x="288" y="14" type="curve"/>
      <point x="288" y="-99"/>
      <point x="251" y="-167"/>
      <point x="182" y="-167" type="curve" smooth="yes"/>
      <point x="124" y="-167"/>
      <point x="85" y="-109"/>
      <point x="85" y="-19" type="curve" smooth="yes"/>
      <point x="85" y="74"/>
      <point x="130" y="141"/>
      <point x="226" y="164" type="curve"/>
    </contour>
    <contour>
      <point x="226" y="164" type="line"/>
      <point x="224" y="230"/>
      <point x="217" y="298"/>
      <point x="213" y="352" type="curve"/>
      <point x="201" y="353"/>
      <point x="188" y="353"/>
      <point x="176" y="352" type="curve"/>
      <point x="176" y="275"/>
      <point x="176" y="223"/>
      <point x="176" y="156" type="curve"/>
    </contour>
    <contour>
      <point x="159" y="550" type="curve"/>
      <point x="160" y="526"/>
      <point x="160" y="511"/>
      <point x="162" y="488" type="curve"/>
      <point x="180" y="486"/>
      <point x="195" y="486"/>
      <point x="216" y="488" type="curve"/>
      <point x="217" y="508"/>
      <point x="217" y="529"/>
      <point x="216" y="551" type="curve"/>
      <point x="207" y="552"/>
      <point x="199" y="553"/>
      <point x="190" y="553" type="curve" smooth="yes"/>
      <point x="180" y="553"/>
      <point x="170" y="552"/>
    </contour>
  </outline>
</glyph>
<glyph name="multiply" format="1">
  <advance width="341"/>
  <unicode hex="00D7"/>
  <outline>
    <contour>
      <point x="262" y="428" type="curve"/>
      <point x="185" y="368"/>
      <point x="120" y="292"/>
      <point x="62" y="218" type="curve"/>
      <point x="69" y="207"/>
      <point x="79" y="197"/>
      <point x="90" y="190" type="curve"/>
      <point x="173" y="287"/>
      <point x="223" y="345"/>
      <point x="291" y="398" type="curve"/>
      <point x="284" y="409"/>
      <point x="275" y="420"/>
    </contour>
    <contour>
      <point x="258" y="187" type="curve"/>
      <point x="269" y="194"/>
      <point x="279" y="201"/>
      <point x="291" y="213" type="curve"/>
      <point x="229" y="292"/>
      <point x="157" y="366"/>
      <point x="81" y="425" type="curve"/>
      <point x="70" y="418"/>
      <point x="59" y="409"/>
      <point x="50" y="400" type="curve"/>
      <point x="150" y="315"/>
      <point x="203" y="257"/>
    </contour>
  </outline>
</glyph>
<glyph name="oslash" format="1">
  <advance width="431"/>
  <unicode hex="00F8"/>
  <outline>
    <contour>
      <point x="230" y="533" type="curve" smooth="yes"/>
      <point x="115" y="533"/>
      <point x="31" y="418"/>
      <point x="31" y="244" type="curve" smooth="yes"/>
      <point x="31" y="105"/>
      <point x="91" y="-10"/>
      <point x="200" y="-10" type="curve" smooth="yes"/>
      <point x="317" y="-10"/>
      <point x="390" y="128"/>
      <point x="390" y="317" type="curve" smooth="yes"/>
      <point x="390" y="446"/>
      <point x="331" y="533"/>
    </contour>
    <contour>
      <point x="217" y="488" type="curve" smooth="yes"/>
      <point x="289" y="488"/>
      <point x="331" y="429"/>
      <point x="331" y="277" type="curve" smooth="yes"/>
      <point x="331" y="132"/>
      <point x="268" y="35"/>
      <point x="208" y="35" type="curve" smooth="yes"/>
      <point x="120" y="35"/>
      <point x="86" y="156"/>
      <point x="86" y="251" type="curve" smooth="yes"/>
      <point x="86" y="390"/>
      <point x="151" y="488"/>
    </contour>
    <contour>
      <point x="74" y="-68" type="curve"/>
      <point x="185" y="140"/>
      <point x="277" y="337"/>
      <point x="372" y="575" type="curve"/>
      <point x="357" y="587"/>
      <point x="346" y="594"/>
      <point x="332" y="600" type="curve"/>
      <point x="219" y="335"/>
      <point x="133" y="157"/>
      <point x="28" y="-43" type="curve"/>
      <point x="40" y="-53"/>
      <point x="52" y="-61"/>
    </contour>
  </outline>
</glyph>
<glyph name="Aogonek" format="1">
  <advance width="605"/>
  <unicode hex="0104"/>
  <outline>
    <contour>
      <point x="582" y="-85" type="curve"/>
      <point x="531" y="266"/>
      <point x="466" y="453"/>
      <point x="343" y="698" type="curve"/>
      <point x="323" y="702"/>
      <point x="306" y="703"/>
      <point x="280" y="705" type="curve"/>
      <point x="222" y="439"/>
      <point x="165" y="254"/>
      <point x="25" y="8" type="curve"/>
      <point x="38" y="-3"/>
      <point x="51" y="-14"/>
      <point x="77" y="-20" type="curve"/>
      <point x="208" y="232"/>
      <point x="266" y="410"/>
      <point x="321" y="669" type="curve"/>
      <point x="292" y="678" type="line"/>
      <point x="409" y="454"/>
      <point x="469" y="277"/>
      <point x="526" y="-103" type="curve"/>
      <point x="548" y="-99"/>
      <point x="563" y="-95"/>
    </contour>
    <contour>
      <point x="489" y="233" type="curve"/>
      <point x="482" y="280" type="line"/>
      <point x="377" y="280"/>
      <point x="255" y="272"/>
      <point x="157" y="253" type="curve"/>
      <point x="159" y="210" type="line"/>
      <point x="249" y="228"/>
      <point x="369" y="236"/>
    </contour>
    <contour>
      <point x="582" y="-85" type="curve"/>
      <point x="554" y="-77" type="line"/>
      <point x="492" y="-120"/>
      <point x="460" y="-165"/>
      <point x="460" y="-215" type="curve" smooth="yes"/>
      <point x="460" y="-259"/>
      <point x="490" y="-289"/>
      <point x="537" y="-289" type="curve" smooth="yes"/>
      <point x="582" y="-289"/>
      <point x="610" y="-268"/>
      <point x="633" y="-232" type="curve"/>
      <point x="627" y="-215"/>
      <point x="621" y="-205"/>
      <point x="610" y="-196" type="curve"/>
      <point x="593" y="-228"/>
      <point x="575" y="-241"/>
      <point x="551" y="-241" type="curve" smooth="yes"/>
      <point x="527" y="-241"/>
      <point x="515" y="-226"/>
      <point x="515" y="-202" type="curve" smooth="yes"/>
      <point x="515" y="-166"/>
      <point x="532" y="-132"/>
    </contour>
  </outline>
</glyph>
<glyph name="aogonek" format="1">
  <advance width="432"/>
  <unicode hex="0105"/>
  <outline>
    <contour>
      <point x="313" y="-34" type="curve"/>
      <point x="298" y="-34"/>
      <point x="280" y="-30"/>
      <point x="264" y="-24" type="curve"/>
      <point x="306" y="145"/>
      <point x="315" y="201"/>
      <point x="315" y="341" type="curve" smooth="yes"/>
      <point x="315" y="454"/>
      <point x="284" y="488"/>
      <point x="224" y="488" type="curve" smooth="yes"/>
      <point x="158" y="488"/>
      <point x="109" y="425"/>
      <point x="106" y="340" type="curve"/>
      <point x="79" y="346"/>
      <point x="62" y="354"/>
      <point x="51" y="369" type="curve"/>
      <point x="65" y="457"/>
      <point x="142" y="533"/>
      <point x="233" y="533" type="curve" smooth="yes"/>
      <point x="347" y="533"/>
      <point x="374" y="436"/>
      <point x="374" y="338" type="curve" smooth="yes"/>
      <point x="374" y="241"/>
      <point x="343" y="72"/>
    </contour>
    <contour>
      <point x="321" y="231" type="line"/>
      <point x="128" y="246"/>
      <point x="86" y="192"/>
      <point x="86" y="138" type="curve" smooth="yes"/>
      <point x="86" y="85"/>
      <point x="125" y="52"/>
      <point x="180" y="52" type="curve" smooth="yes"/>
      <point x="230" y="52"/>
      <point x="276" y="71"/>
      <point x="309" y="106" type="curve"/>
      <point x="304" y="67" type="line"/>
      <point x="279" y="33"/>
      <point x="232" y="8"/>
      <point x="175" y="8" type="curve" smooth="yes"/>
      <point x="87" y="8"/>
      <point x="28" y="60"/>
      <point x="28" y="138" type="curve" smooth="yes"/>
      <point x="28" y="218"/>
      <point x="94" y="269"/>
      <point x="243" y="269" type="curve" smooth="yes"/>
      <point x="275" y="269"/>
      <point x="297" y="268"/>
      <point x="322" y="266" type="curve"/>
    </contour>
    <contour>
      <point x="300" y="-26" type="line"/>
      <point x="250" y="-73"/>
      <point x="233" y="-107"/>
      <point x="233" y="-143" type="curve" smooth="yes"/>
      <point x="233" y="-167"/>
      <point x="245" y="-182"/>
      <point x="269" y="-182" type="curve" smooth="yes"/>
      <point x="293" y="-182"/>
      <point x="311" y="-169"/>
      <point x="328" y="-137" type="curve"/>
      <point x="339" y="-146"/>
      <point x="345" y="-156"/>
      <point x="351" y="-173" type="curve"/>
      <point x="328" y="-209"/>
      <point x="300" y="-230"/>
      <point x="255" y="-230" type="curve" smooth="yes"/>
      <point x="208" y="-230"/>
      <point x="178" y="-200"/>
      <point x="178" y="-156" type="curve" smooth="yes"/>
      <point x="178" y="-106"/>
      <point x="210" y="-61"/>
      <point x="272" y="-18" type="curve"/>
    </contour>
  </outline>
</glyph>
<glyph name="Iogonek" format="1">
  <advance width="219"/>
  <unicode hex="012E"/>
  <outline>
    <contour>
      <point x="131" y="-22" type="curve"/>
      <point x="138" y="206"/>
      <point x="136" y="332"/>
      <point x="136" y="481" type="curve" smooth="yes"/>
      <point x="136" y="552"/>
      <point x="135" y="610"/>
      <point x="130" y="677" type="curve"/>
      <point x="124" y="678"/>
      <point x="118" y="679"/>
      <point x="110" y="679" type="curve" smooth="yes"/>
      <point x="95" y="679"/>
      <point x="82" y="676"/>
      <point x="69" y="670" type="curve"/>
      <point x="83" y="454"/>
      <point x="87" y="217"/>
      <point x="83" y="-28" type="curve"/>
      <point x="101" y="-27"/>
      <point x="121" y="-25"/>
    </contour>
    <contour>
      <point x="131" y="-22" type="curve"/>
      <point x="103" y="-14" type="line"/>
      <point x="41" y="-57"/>
      <point x="9" y="-102"/>
      <point x="9" y="-152" type="curve" smooth="yes"/>
      <point x="9" y="-196"/>
      <point x="39" y="-226"/>
      <point x="86" y="-226" type="curve" smooth="yes"/>
      <point x="131" y="-226"/>
      <point x="159" y="-205"/>
      <point x="182" y="-169" type="curve"/>
      <point x="176" y="-152"/>
      <point x="170" y="-142"/>
      <point x="159" y="-133" type="curve"/>
      <point x="142" y="-165"/>
      <point x="124" y="-178"/>
      <point x="100" y="-178" type="curve" smooth="yes"/>
      <point x="76" y="-178"/>
      <point x="64" y="-163"/>
      <point x="64" y="-139" type="curve" smooth="yes"/>
      <point x="64" y="-103"/>
      <point x="81" y="-69"/>
    </contour>
  </outline>
</glyph>
<glyph name="uni02C9" format="1">
  <advance width="260.090169944"/>
  <unicode hex="02C9"/>
  <outline>
    <contour>
      <point x="39" y="698" type="curve"/>
      <point x="36" y="683"/>
      <point x="35" y="663"/>
      <point x="36" y="649" type="curve"/>
      <point x="74" y="637"/>
      <point x="134" y="632"/>
      <point x="222" y="641" type="curve"/>
      <point x="224" y="658"/>
      <point x="225" y="673"/>
      <point x="223" y="692" type="curve"/>
      <point x="167" y="685"/>
      <point x="100" y="686"/>
    </contour>
  </outline>
</glyph>
<glyph name="endash" format="1">
  <advance width="400"/>
  <unicode hex="2013"/>
  <outline>
    <contour>
      <point x="32" y="297"/>
      <point x="31" y="284"/>
      <point x="30" y="264" type="curve"/>
      <point x="146" y="247"/>
      <point x="251" y="245"/>
      <point x="365" y="255" type="curve"/>
      <point x="368" y="271"/>
      <point x="370" y="286"/>
      <point x="370" y="299" type="curve"/>
      <point x="320" y="295"/>
      <point x="277" y="293"/>
      <point x="238" y="293" type="curve" smooth="yes"/>
      <point x="163" y="293"/>
      <point x="101" y="298"/>
      <point x="35" y="309" type="curve"/>
    </contour>
  </outline>
</glyph>
<glyph name="emdash" format="1">
  <advance width="560"/>
  <unicode hex="2014"/>
  <outline>
    <contour>
      <point x="32" y="288"/>
      <point x="31" y="275"/>
      <point x="30" y="255" type="curve"/>
      <point x="184" y="230"/>
      <point x="350" y="229"/>
      <point x="525" y="246" type="curve"/>
      <point x="528" y="262"/>
      <point x="530" y="277"/>
      <point x="530" y="290" type="curve"/>
      <point x="451" y="282"/>
      <point x="384" y="280"/>
      <point x="323" y="280" type="curve" smooth="yes"/>
      <point x="208" y="280"/>
      <point x="141" y="285"/>
      <point x="35" y="300" type="curve"/>
    </contour>
  </outline>
</glyph>
<glyph name="quoteright" format="1">
  <advance width="122"/>
  <unicode hex="2019"/>
  <outline>
    <contour>
      <point x="87" y="737" type="curve"/>
      <point x="69" y="739"/>
      <point x="49" y="738"/>
      <point x="31" y="736" type="curve"/>
      <point x="35" y="683"/>
      <point x="29" y="604"/>
      <point x="10" y="496" type="curve"/>
      <point x="20" y="493"/>
      <point x="33" y="490"/>
      <point x="45" y="489" type="curve"/>
      <point x="79" y="603"/>
      <point x="87" y="661"/>
    </contour>
  </outline>
</glyph>
<glyph name="quotesinglbase" format="1">
  <advance width="122"/>
  <unicode hex="201A"/>
  <outline>
    <contour>
      <point x="87" y="70" type="curve"/>
      <point x="69" y="72"/>
      <point x="49" y="71"/>
      <point x="31" y="69" type="curve"/>
      <point x="35" y="16"/>
      <point x="29" y="-63"/>
      <point x="10" y="-171" type="curve"/>
      <point x="20" y="-174"/>
      <point x="33" y="-177"/>
      <point x="45" y="-178" type="curve"/>
      <point x="79" y="-64"/>
      <point x="87" y="-6"/>
    </contour>
  </outline>
</glyph>
<glyph name="fraction" format="1">
  <advance width="285"/>
  <unicode hex="2044"/>
  <outline>
    <contour>
      <point x="131" y="263"/>
      <point x="232" y="472"/>
      <point x="345" y="757" type="curve"/>
      <point x="328" y="769"/>
      <point x="315" y="775"/>
      <point x="300" y="781" type="curve"/>
      <point x="175" y="477"/>
      <point x="89" y="286"/>
      <point x="-60" y="-1" type="curve"/>
      <point x="-48" y="-10"/>
      <point x="-39" y="-20"/>
      <point x="-20" y="-26" type="curve"/>
    </contour>
  </outline>
</glyph>
<glyph name="minus" format="1">
  <advance width="341"/>
  <unicode hex="2212"/>
  <outline>
    <contour>
      <point x="37" y="342" type="curve"/>
      <point x="34" y="329"/>
      <point x="32" y="317"/>
      <point x="32" y="300" type="curve"/>
      <point x="127" y="289"/>
      <point x="224" y="289"/>
      <point x="315" y="300" type="curve"/>
      <point x="318" y="313"/>
      <point x="319" y="327"/>
      <point x="319" y="340" type="curve"/>
      <point x="195" y="330"/>
      <point x="120" y="332"/>
    </contour>
  </outline>
</glyph>
<glyph name="uni2219" format="1">
  <advance width="164"/>
  <unicode hex="2219"/>
  <outline>
    <contour>
      <point x="136" y="306"/>
      <point x="137" y="335"/>
      <point x="139" y="370" type="curve"/>
      <point x="91" y="377"/>
      <point x="52" y="371"/>
      <point x="25" y="365" type="curve"/>
      <point x="25" y="330"/>
      <point x="28" y="309"/>
      <point x="29" y="272" type="curve"/>
      <point x="62" y="267"/>
      <point x="91" y="267"/>
      <point x="130" y="272" type="curve"/>
    </contour>
  </outline>
</glyph>
<glyph name="infinity" format="1">
  <advance width="574"/>
  <unicode hex="221E"/>
  <outline>
    <contour>
      <point x="549" y="363" type="curve" smooth="yes"/>
      <point x="549" y="449"/>
      <point x="500.0" y="517.0"/>
      <point x="420.0" y="517.0" type="curve" smooth="yes"/>
      <point x="352.0" y="517.0"/>
      <point x="314" y="460"/>
      <point x="281" y="384" type="curve"/>
      <point x="313" y="342" type="line"/>
      <point x="337" y="410"/>
      <point x="373.0" y="469.0"/>
      <point x="419.0" y="469.0" type="curve" smooth="yes"/>
      <point x="475.0" y="469.0"/>
      <point x="499.0" y="425.0"/>
      <point x="499.0" y="357.0" type="curve" smooth="yes"/>
      <point x="499.0" y="295.0"/>
      <point x="470.0" y="256.0"/>
      <point x="428.0" y="256.0" type="curve" smooth="yes"/>
      <point x="376.0" y="256.0"/>
      <point x="346.0" y="290.0"/>
      <point x="300.0" y="376.0" type="curve" smooth="yes"/>
      <point x="270.0" y="432.0"/>
      <point x="231.0" y="504.0"/>
      <point x="147.0" y="504.0" type="curve" smooth="yes"/>
      <point x="82.0" y="504.0"/>
      <point x="25.0" y="442.0"/>
      <point x="25.0" y="349.0" type="curve" smooth="yes"/>
      <point x="25.0" y="265.0"/>
      <point x="73.0" y="201.0"/>
      <point x="157.0" y="201.0" type="curve" smooth="yes"/>
      <point x="220.0" y="201.0"/>
      <point x="267" y="240"/>
      <point x="298" y="306" type="curve"/>
      <point x="271" y="358" type="line"/>
      <point x="241" y="287"/>
      <point x="202.0" y="248.0"/>
      <point x="154.0" y="249.0" type="curve" smooth="yes"/>
      <point x="100.0" y="250.0"/>
      <point x="75.0" y="295.0"/>
      <point x="75.0" y="354.0" type="curve" smooth="yes"/>
      <point x="75.0" y="419.0"/>
      <point x="107.0" y="456.0"/>
      <point x="148.0" y="456.0" type="curve" smooth="yes"/>
      <point x="199.0" y="456.0"/>
      <point x="224" y="404"/>
      <point x="267" y="327" type="curve" smooth="yes"/>
      <point x="307" y="255"/>
      <point x="358.0" y="208.0"/>
      <point x="422.0" y="208.0" type="curve" smooth="yes"/>
      <point x="498.0" y="208.0"/>
      <point x="549" y="272"/>
    </contour>
  </outline>
</glyph>
<glyph name="caron.alt" format="1">
  <advance width="260"/>
  <unicode hex="E189"/>
  <outline>
    <contour>
      <point x="122" y="570" type="curve"/>
      <point x="158" y="639"/>
      <point x="172" y="704"/>
      <point x="180" y="779" type="curve"/>
      <point x="164" y="783"/>
      <point x="137" y="784"/>
      <point x="118" y="782" type="curve"/>
      <point x="115" y="706"/>
      <point x="103" y="640"/>
      <point x="81" y="577" type="curve"/>
      <point x="95" y="573"/>
      <point x="107" y="571"/>
    </contour>
  </outline>
</glyph>
<glyph name="commaaccent" format="1">
  <advance width="260.227766017"/>
  <unicode hex="F6C3"/>
  <outline>
    <contour>
      <point x="167" y="-58" type="curve"/>
      <point x="150" y="-57"/>
      <point x="134" y="-58"/>
      <point x="115" y="-62" type="curve"/>
      <point x="118" y="-121"/>
      <point x="112" y="-174"/>
      <point x="92" y="-241" type="curve"/>
      <point x="104" y="-247"/>
      <point x="116" y="-250"/>
      <point x="132" y="-251" type="curve"/>
      <point x="162" y="-178"/>
      <point x="172" y="-113"/>
    </contour>
  </outline>
</glyph>
